<svg width="362" height="296" viewBox="0 0 362 296" fill="none" xmlns="http://www.w3.org/2000/svg">
  <path d="M109 151C116 94 130 65 146 62C159 60 172 101 178 121" stroke="#000" stroke-width="8" stroke-linecap="round"/>
  <path d="M223 121C237 89 261 58 275 64C289 70 292 108 288 146" stroke="#000" stroke-width="8" stroke-linecap="round"/>
  <path d="M60 177C91 166 117 162 139 164" stroke="#000" stroke-width="7" stroke-linecap="round"/>
  <path d="M57 207C91 191 118 185 139 184" stroke="#000" stroke-width="7" stroke-linecap="round"/>
  <path d="M67 235C95 212 120 201 142 197" stroke="#000" stroke-width="7" stroke-linecap="round"/>
  <path d="M296 164C323 160 346 164 366 177" stroke="#000" stroke-width="7" stroke-linecap="round"/>
  <path d="M295 184C323 184 347 191 368 205" stroke="#000" stroke-width="7" stroke-linecap="round"/>
  <path d="M293 198C321 204 344 215 361 232" stroke="#000" stroke-width="7" stroke-linecap="round"/>
  <path d="M181 92C184 96 184 101 181 105" stroke="#000" stroke-width="6" stroke-linecap="round"/>
  <path d="M199 90C202 95 202 100 199 104" stroke="#000" stroke-width="6" stroke-linecap="round"/>
  <path d="M217 91C220 95 220 99 217 103" stroke="#000" stroke-width="6" stroke-linecap="round"/>
  <ellipse cx="147" cy="183" rx="7" ry="11" fill="#000"/>
  <ellipse cx="249" cy="183" rx="7" ry="11" fill="#000"/>
  <path d="M190 216C193 222 198 222 201 216" stroke="#000" stroke-width="5" stroke-linecap="round"/>
  <path d="M201 216C204 222 209 222 212 216" stroke="#000" stroke-width="5" stroke-linecap="round"/>
</svg>
